<svg width="1280" height="720" xmlns="http://www.w3.org/2000/svg" xmlns:xlink="http://www.w3.org/1999/xlink" overflow="hidden"><g><rect x="0" y="0" width="1280" height="720" fill="#FFFFFF"/><path d="M325 85.8348C325 55.5504 349.55 31 379.835 31L900.165 31C930.45 31 955 55.5504 955 85.8348L955 633.165C955 663.45 930.45 688 900.165 688L379.835 688C349.55 688 325 663.45 325 633.165Z" stroke="#042433" stroke-width="8" stroke-miterlimit="8" fill="none" fill-rule="evenodd"/><path d="M348 81.167C348 68.9245 357.924 59 370.167 59L909.833 59C922.076 59 932 68.9245 932 81.167L932 169.833C932 182.076 922.076 192 909.833 192L370.167 192C357.924 192 348 182.076 348 169.833Z" stroke="#042433" stroke-width="8" stroke-miterlimit="8" fill="none" fill-rule="evenodd"/><text font-family="Aptos,Aptos_MSFontService,sans-serif" font-weight="400" font-size="72" transform="translate(463.917 148)">Embedding</text><path d="M348 305.668C348 265.535 380.535 233 420.668 233L859.332 233C899.465 233 932 265.535 932 305.668L932 596.332C932 636.465 899.465 669 859.332 669L420.668 669C380.535 669 348 636.465 348 596.332Z" stroke="#042433" stroke-width="8" stroke-miterlimit="8" fill="none" fill-rule="evenodd"/><path d="M383 336.834C383 327.537 390.537 320 399.834 320L882.166 320C891.463 320 899 327.537 899 336.834L899 404.166C899 413.463 891.463 421 882.166 421L399.834 421C390.537 421 383 413.463 383 404.166Z" stroke="#042433" stroke-width="8" stroke-miterlimit="8" fill="none" fill-rule="evenodd"/><text font-family="Aptos,Aptos_MSFontService,sans-serif" font-weight="400" font-size="72" transform="translate(585.695 393)">File</text><path d="M383 451C383 441.611 390.611 434 400 434L882 434C891.389 434 899 441.611 899 451L899 519C899 528.389 891.389 536 882 536L400 536C390.611 536 383 528.389 383 519Z" stroke="#042433" stroke-width="8" stroke-miterlimit="8" fill="none" fill-rule="evenodd"/><text font-family="Aptos,Aptos_MSFontService,sans-serif" font-weight="400" font-size="72" transform="translate(445.598 508)">Section Path</text><path d="M383 566C383 556.611 390.611 549 400 549L882 549C891.389 549 899 556.611 899 566L899 634C899 643.389 891.389 651 882 651L400 651C390.611 651 383 643.389 383 634Z" stroke="#042433" stroke-width="8" stroke-miterlimit="8" fill="none" fill-rule="evenodd"/><text font-family="Aptos,Aptos_MSFontService,sans-serif" font-weight="400" font-size="72" transform="translate(580.578 623)">Text</text><text font-family="Aptos,Aptos_MSFontService,sans-serif" font-style="italic" font-weight="400" font-size="64" transform="translate(392.123 310)">Metadata</text></g></svg>