<svg width="1280" height="720" xmlns="http://www.w3.org/2000/svg" xmlns:xlink="http://www.w3.org/1999/xlink" overflow="hidden"><g><rect x="0" y="0" width="1280" height="720" fill="#FFFFFF"/><path d="M529 313.375C529 327.389 574.443 338.75 630.5 338.75 686.557 338.75 732 327.389 732 313.375L732 482.625C732 496.639 686.557 508 630.5 508 574.443 508 529 496.639 529 482.625Z" fill="#4EA72E" fill-rule="evenodd"/><path d="M529 313.375C529 299.361 574.443 288 630.5 288 686.557 288 732 299.361 732 313.375 732 327.389 686.557 338.75 630.5 338.75 574.443 338.75 529 327.389 529 313.375Z" fill="#95CA82" fill-rule="evenodd"/><path d="M732 313.375C732 327.389 686.557 338.75 630.5 338.75 574.443 338.75 529 327.389 529 313.375 529 299.361 574.443 288 630.5 288 686.557 288 732 299.361 732 313.375L732 482.625C732 496.639 686.557 508 630.5 508 574.443 508 529 496.639 529 482.625L529 313.375" stroke="#042433" stroke-width="2" stroke-miterlimit="8" fill="none" fill-rule="evenodd"/><text fill="#FFFFFF" font-family="Aptos,Aptos_MSFontService,sans-serif" font-weight="700" font-size="43" transform="translate(539.441 424)">Pinecone</text><path d="M28 173C28 165.268 34.2681 159 42.0002 159L244 159C251.732 159 258 165.268 258 173L258 229C258 236.732 251.732 243 244 243L42.0002 243C34.2681 243 28 236.732 28 229Z" stroke="#042433" stroke-width="2" stroke-miterlimit="8" fill="#156082" fill-rule="evenodd"/><text fill="#FFFFFF" font-family="Aptos,Aptos_MSFontService,sans-serif" font-weight="400" font-size="32" transform="translate(69.8881 212)">Document</text><path d="M268 398C268 374.804 319.711 356 383.5 356 447.289 356 499 374.804 499 398 499 421.196 447.289 440 383.5 440 319.711 440 268 421.196 268 398Z" stroke="#042433" stroke-width="2" stroke-miterlimit="8" fill="#156082" fill-rule="evenodd"/><text fill="#FFFFFF" font-family="Aptos,Aptos_MSFontService,sans-serif" font-weight="400" font-size="32" transform="translate(334.384 409)">Embed</text><path d="M28 595.5C28 572.028 79.4873 553 143 553 206.513 553 258 572.028 258 595.5 258 618.972 206.513 638 143 638 79.4873 638 28 618.972 28 595.5Z" stroke="#042433" stroke-width="2" stroke-miterlimit="8" fill="#156082" fill-rule="evenodd"/><text fill="#FFFFFF" font-family="Aptos,Aptos_MSFontService,sans-serif" font-weight="400" font-size="32" transform="translate(77.4882 606)">Metadata</text><path d="M28 370C28 362.268 34.2681 356 42.0002 356L244 356C251.732 356 258 362.268 258 370L258 426C258 433.732 251.732 440 244 440L42.0002 440C34.2681 440 28 433.732 28 426Z" stroke="#042433" stroke-width="2" stroke-miterlimit="8" fill="#156082" fill-rule="evenodd"/><text fill="#FFFFFF" font-family="Aptos,Aptos_MSFontService,sans-serif" font-weight="400" font-size="32" transform="translate(90.5548 409)">Section</text><path d="M146 243 146 340.984 140 340.984 140 243ZM152 337.984 143 355.984 134 337.984Z" fill="#196B24"/><path d="M146 440 146 537.984 140 537.984 140 440ZM152 534.984 143 552.984 134 534.984Z" fill="#196B24"/><path d="M0-3 127.923-3 127.923 140.077 121.923 140.077 121.923 0 124.923 3 0 3ZM133.923 137.077 124.923 155.077 115.923 137.077Z" fill="#196B24" transform="matrix(1 0 0 -1 258 595.077)"/><path d="M499 395 514.523 395 514.523 401 499 401ZM511.523 389 529.523 398 511.523 407Z" fill="#196B24"/><text font-family="Aptos,Aptos_MSFontService,sans-serif" font-weight="400" font-size="24" transform="matrix(0.866025 -0.5 0.5 0.866025 80.1938 320)">SPLIT</text><path d="M752 115C752 107.268 758.268 101 766 101L927 101C934.732 101 941 107.268 941 115L941 171C941 178.732 934.732 185 927 185L766 185C758.268 185 752 178.732 752 171Z" stroke="#042433" stroke-width="2" stroke-miterlimit="8" fill="#E97132" fill-rule="evenodd"/><text font-family="Aptos,Aptos_MSFontService,sans-serif" font-weight="400" font-size="32" transform="translate(768.848 154)">User Query</text><path d="M752 522.167C752 514.343 758.343 508 766.167 508L925.833 508C933.657 508 940 514.343 940 522.167L940 578.833C940 586.657 933.657 593 925.833 593L766.167 593C758.343 593 752 586.657 752 578.833Z" stroke="#042433" stroke-width="2" stroke-miterlimit="8" fill="#E97132" fill-rule="evenodd"/><text font-family="Aptos,Aptos_MSFontService,sans-serif" font-weight="400" font-size="32" transform="translate(791.645 561)">Context</text><path d="M752 318C752 294.804 794.309 276 846.5 276 898.691 276 941 294.804 941 318 941 341.196 898.691 360 846.5 360 794.309 360 752 341.196 752 318Z" stroke="#042433" stroke-width="2" stroke-miterlimit="8" fill="#E97132" fill-rule="evenodd"/><text font-family="Aptos,Aptos_MSFontService,sans-serif" font-weight="400" font-size="32" transform="translate(797.408 329)">Embed</text><path d="M849 185 849 260.338 843 260.338 843 185ZM855 257.338 846 275.338 837 257.338Z" fill="#196B24"/><path d="M0-3 3.36966-3 3.36966 83.7344 0.369657 80.7344 95.0308 80.7344 95.0308 86.7344-2.63034 86.7344-2.63034 0 0.369657 3 0 3ZM92.0308 74.7344 110.031 83.7344 92.0308 92.7344Z" fill="#78206E" transform="matrix(1.83697e-16 1 1 -1.83697e-16 762 398)"/><path d="M849.758 360 849.758 401.4 747 401.4 747 395.4 846.758 395.4 843.758 398.4 843.758 360ZM750 407.4 732 398.4 750 389.4Z" fill="#196B24"/><text font-family="Aptos,Aptos_MSFontService,sans-serif" font-weight="400" font-size="24" transform="matrix(0.866025 -0.5 0.5 0.866025 766.009 485)">Cos Sim</text><path d="M1035 115C1035 107.268 1041.27 101 1049 101L1210 101C1217.73 101 1224 107.268 1224 115L1224 171C1224 178.732 1217.73 185 1210 185L1049 185C1041.27 185 1035 178.732 1035 171Z" stroke="#042433" stroke-width="2" stroke-miterlimit="8" fill="#E97132" fill-rule="evenodd"/><text font-family="Aptos,Aptos_MSFontService,sans-serif" font-weight="400" font-size="32" transform="translate(1080.19 154)">Output</text><path d="M1035 522C1035 514.268 1041.27 508 1049 508L1210 508C1217.73 508 1224 514.268 1224 522L1224 578C1224 585.732 1217.73 592 1210 592L1049 592C1041.27 592 1035 585.732 1035 578Z" stroke="#042433" stroke-width="2" stroke-miterlimit="8" fill="#E97132" fill-rule="evenodd"/><text font-family="Aptos,Aptos_MSFontService,sans-serif" font-weight="400" font-size="32" transform="translate(1078.23 561)">Prompt</text><path d="M1035 318.167C1035 310.343 1041.34 304 1049.17 304L1209.83 304C1217.66 304 1224 310.343 1224 318.167L1224 374.833C1224 382.657 1217.66 389 1209.83 389L1049.17 389C1041.34 389 1035 382.657 1035 374.833Z" stroke="#042433" stroke-width="2" stroke-miterlimit="8" fill="#E97132" fill-rule="evenodd"/><text font-family="Aptos,Aptos_MSFontService,sans-serif" font-weight="400" font-size="32" transform="translate(1100.44 357)">LLM</text><path d="M0.0240784-2.9999 79.4244-2.36261 79.3763 3.6372-0.0240784 2.9999ZM76.4727-8.38649 94.3999 0.75769 76.3282 9.61293Z" fill="#78206E" transform="matrix(1 0 0 -1 940 550.758)"/><path d="M3-2.6466e-06 3.00009 104.006-2.99991 104.006-3 2.6466e-06ZM9.00009 101.006 0.000104987 119.006-8.99991 101.006Z" fill="#78206E" transform="matrix(1 0 0 -1 1129 508.006)"/><path d="M3-2.6466e-06 3.00009 104.006-2.99991 104.006-3 2.6466e-06ZM9.00009 101.006 0.000104987 119.006-8.99991 101.006Z" fill="#78206E" transform="matrix(1 0 0 -1 1129 304.006)"/></g></svg>